<svg width="24" height="38" viewBox="0 0 24 38" fill="none" xmlns="http://www.w3.org/2000/svg">
<path d="M15.1611 25.7451H8.1543C8.1543 24.3128 8.25195 23.0514 8.44727 21.9609C8.65885 20.8542 9.01693 19.8613 9.52148 18.9824C10.026 18.1035 10.7096 17.2897 11.5723 16.541C12.3372 15.9062 12.9964 15.2959 13.5498 14.71C14.1032 14.124 14.5264 13.5299 14.8193 12.9277C15.1123 12.3255 15.2588 11.6826 15.2588 10.999C15.2588 10.1527 15.1367 9.46094 14.8926 8.92383C14.6647 8.38672 14.3148 7.98796 13.8428 7.72754C13.387 7.45085 12.8092 7.3125 12.1094 7.3125C11.5397 7.3125 11.0026 7.45085 10.498 7.72754C10.0098 8.00423 9.611 8.43555 9.30176 9.02148C8.99251 9.59115 8.82161 10.348 8.78906 11.292H0.512695C0.561523 8.86686 1.09863 6.89746 2.12402 5.38379C3.16569 3.85384 4.54915 2.73893 6.27441 2.03906C8.01595 1.32292 9.96094 0.964844 12.1094 0.964844C14.4857 0.964844 16.5283 1.33105 18.2373 2.06348C19.9463 2.7959 21.2565 3.88639 22.168 5.33496C23.0794 6.76725 23.5352 8.5332 23.5352 10.6328C23.5352 12.0326 23.2666 13.2533 22.7295 14.2949C22.2087 15.3203 21.5007 16.2806 20.6055 17.1758C19.7266 18.0547 18.7419 18.9987 17.6514 20.0078C16.7074 20.8379 16.0645 21.6842 15.7227 22.5469C15.3809 23.3932 15.1937 24.4593 15.1611 25.7451ZM7.15332 33.167C7.15332 31.9951 7.5765 31.0186 8.42285 30.2373C9.26921 29.4398 10.3678 29.041 11.7188 29.041C13.0697 29.041 14.1683 29.4398 15.0146 30.2373C15.861 31.0186 16.2842 31.9951 16.2842 33.167C16.2842 34.3389 15.861 35.3236 15.0146 36.1211C14.1683 36.9023 13.0697 37.293 11.7188 37.293C10.3678 37.293 9.26921 36.9023 8.42285 36.1211C7.5765 35.3236 7.15332 34.3389 7.15332 33.167Z" fill="#363667"/>
</svg>
