<svg width="38" height="38" viewBox="0 0 38 38" fill="none" xmlns="http://www.w3.org/2000/svg">
<path d="M20.6173 35.358H4.00832V2.45552H21.9162V7.44471C21.9162 7.94889 22.3244 8.357 22.8283 8.357H27.6712L27.672 24.7035C28.52 24.7229 29.3468 24.8802 30.1269 25.1706V6.99933C30.1269 6.80414 30.0492 6.61687 29.9111 6.47831L23.6483 0.215626C23.5102 0.0776072 23.3229 0 23.1273 0H3.76289C2.54441 0 1.55298 0.991068 1.55298 2.20965V35.6037C1.55298 36.8221 2.54441 37.8134 3.76298 37.8134H22.3971C21.6495 37.1276 21.0416 36.293 20.6173 35.358Z" fill="#363667"/>
<path d="M36.4468 28.0581C36.4468 27.6452 36.2861 27.2572 35.9942 26.9649L34.8379 25.8085C34.5458 25.5167 34.1577 25.356 33.745 25.356C33.3325 25.356 32.9441 25.5167 32.6519 25.8087L30.8871 27.5733C29.9445 26.8976 28.789 26.4994 27.5408 26.4994C24.3651 26.4994 21.7908 29.074 21.7908 32.2497C21.7908 35.4252 24.3651 37.9997 27.5408 37.9997C30.7163 37.9997 33.2909 35.4251 33.2909 32.2497C33.2909 32.1209 33.2863 31.9933 33.2778 31.8667L35.9937 29.1508C36.2861 28.8592 36.4468 28.4708 36.4468 28.0581ZM34.7392 28.4019L29.2086 33.9324C29.092 34.049 28.9339 34.1143 28.7691 34.1143H28.7689C28.604 34.1143 28.4459 34.0487 28.3295 33.9322L25.7667 31.3654C25.5245 31.1229 25.5247 30.7296 25.7669 30.4869L26.2606 29.9936C26.5028 29.7511 26.896 29.7509 27.1388 29.9929L28.7688 31.6187L33.3621 27.0252C33.4788 26.9086 33.6369 26.8433 33.8016 26.8433C33.9664 26.8433 34.1245 26.9087 34.2411 27.0252L34.739 27.5231C34.9818 27.7657 34.9818 28.1591 34.7392 28.4019Z" fill="#1097F9"/>
<path d="M16.9385 9.80904L11.7672 10.9928L12.9511 5.82154C11.1392 5.36715 9.14103 5.84819 7.72393 7.2652C5.57803 9.41101 5.57803 12.8902 7.72393 15.036C9.86983 17.1819 13.3489 17.1819 15.4948 15.036C16.9117 13.619 17.3928 11.6208 16.9385 9.80904Z" fill="#363667"/>
<path d="M16.9878 5.77227C16.2588 5.04337 15.3762 4.56234 14.4441 4.32861L13.2603 9.49976L18.4315 8.31593C18.1978 7.38393 17.7167 6.50117 16.9878 5.77227Z" fill="#1097F9"/>
<path d="M8.02733 22.5029H9.91736C10.4407 22.5029 10.8665 22.0771 10.8665 21.5537C10.8665 21.0303 10.4407 20.6045 9.91736 20.6045H8.02733C7.50398 20.6045 7.07812 21.0303 7.07812 21.5537C7.07812 22.0771 7.50398 22.5029 8.02733 22.5029Z" fill="#363667"/>
<path d="M15.3192 24.1157H8.02733C7.50398 24.1157 7.07812 24.5415 7.07812 25.0649C7.07812 25.5883 7.50389 26.0141 8.02733 26.0141H15.3193C15.8426 26.0141 16.2684 25.5884 16.2684 25.0649C16.2683 24.5415 15.8425 24.1157 15.3192 24.1157Z" fill="#363667"/>
<path d="M14.2388 27.627H8.02733C7.50398 27.627 7.07812 28.0527 7.07812 28.5762C7.07812 29.0995 7.50389 29.5254 8.02733 29.5254H14.2389C14.7622 29.5254 15.188 29.0996 15.188 28.5762C15.1879 28.0527 14.7621 27.627 14.2388 27.627Z" fill="#363667"/>
</svg>
